<svg xmlns="http://www.w3.org/2000/svg" width="700" height="700" viewBox="0 0 700 700" preserveAspectRatio="xMidYMid meet" class="wheel-svg"><style>.wheel-svg,.hub-svg{background:var(--wheel-svg-background, #ffffff)}.rim-body{fill:var(--wheel-rim-side-fill, #222529);stroke:var(--wheel-rim-stroke, #111111);stroke-width:1;fill-rule:evenodd}.rim-outline{fill:none;stroke:var(--wheel-rim-outline-stroke, #111111);stroke-width:1.5}.rim-highlight{fill:none;stroke:var(--wheel-rim-highlight-stroke, rgba(255,255,255,.18));stroke-width:1}.rim-hole{fill:var(--wheel-rim-hole-fill, #101214);stroke:var(--wheel-rim-hole-stroke, #101214);stroke-width:0.5}.valve-hole-marker{fill:var(--wheel-valve-fill, #2f3438)}.valve-hole-line{stroke:var(--wheel-valve-stroke, #111111);stroke-width:2.5;stroke-linecap:round}.valve-label{font-family:sans-serif;font-size:14px;fill:var(--wheel-valve-label-fill, #495057);font-weight:bold}.wheel-valve-part{fill:var(--wheel-valve-fill, #2f3438);stroke:var(--wheel-valve-stroke, #111111);stroke-width:1}.spoke-nipple{stroke-width:5;stroke-linecap:butt}.spoke-nipple-dot{fill:var(--wheel-nipple-dot-fill, #ffffff);stroke:var(--wheel-nipple-dot-stroke, #111111);stroke-width:1}.nipple-theme-silver .spoke-nipple{stroke:var(--wheel-nipple-silver, #111111)}.nipple-theme-black .spoke-nipple{stroke:var(--wheel-nipple-black, #111111)}.spoke{stroke-width:1.5;stroke-linecap:round}.spoke-theme-color .spoke-left.spoke-pulling{stroke:var(--wheel-spoke-left-pulling, #111111)}.spoke-theme-color .spoke-left.spoke-trailing{stroke:var(--wheel-spoke-left-trailing, #111111)}.spoke-theme-color .spoke-right.spoke-pulling{stroke:var(--wheel-spoke-right-pulling, #111111);stroke-dasharray:4 4}.spoke-theme-color .spoke-right.spoke-trailing{stroke:var(--wheel-spoke-right-trailing, #111111);stroke-dasharray:4 4}.spoke-theme-black .spoke{stroke:var(--wheel-spoke-black, #111111)}.spoke-theme-silver .spoke{stroke:var(--wheel-spoke-silver, #ced4da)}.hub-axle,.hub-axle-tip{fill:var(--wheel-hub-axle-fill, #d9dcde);stroke:var(--wheel-hub-axle-stroke, #222222);stroke-width:0.8}.hub-endcap{fill:var(--wheel-hub-endcap-fill, #7d848a);stroke:var(--wheel-hub-endcap-stroke, #25282b);stroke-width:1}.hub-cylinder,.hub-shell-body{fill:var(--wheel-hub-shell-fill, #bfc4c8);stroke:var(--wheel-hub-shell-stroke, #3c4145);stroke-width:1.2;fill-rule:evenodd}.hub-brand-dt-swiss .hub-shell-body{fill:var(--wheel-hub-shell-dt-swiss-fill, #c9ced2)}.hub-brand-industry-nine .hub-shell-body{fill:var(--wheel-hub-shell-industry-nine-fill, #b5bcc1)}.hub-flange-left{fill:var(--wheel-hub-flange-left-fill, #d2d6d9);stroke:var(--wheel-hub-flange-left-stroke, #3c4145);stroke-width:1;fill-rule:evenodd}.hub-flange-right{fill:var(--wheel-hub-flange-right-fill, #aeb5ba);stroke:var(--wheel-hub-flange-right-stroke, #3c4145);stroke-width:1;fill-rule:evenodd}.hub-flange-plate{stroke-width:1.1}.hub-brake-mount,.hub-centerlock-side,.hub-sixbolt-side{fill:var(--wheel-hub-mount-fill, #969da3);stroke:var(--wheel-hub-mount-stroke, #2c3033);stroke-width:1;fill-rule:evenodd}.hub-cylinder-freehub{fill:var(--wheel-hub-freehub-fill, #c8ccd0);stroke:var(--wheel-hub-freehub-stroke, #3c4145);stroke-width:1;fill-rule:evenodd}.hub-cylinder-dark,.hub-bearing-ring,.hub-freehub-inner-shoulder,.hub-freehub-thread-step{fill:var(--wheel-hub-bearing-fill, #6f767c);stroke:var(--wheel-hub-bearing-stroke, #2c3033);stroke-width:1}.hub-flange-cutout,.hub-flange-scallop{fill:var(--wheel-hub-cutout-fill, #f1f2f3);stroke:var(--wheel-hub-cutout-stroke, #3c4145);stroke-width:0.7}.hub-spoke-hole-side{fill:var(--wheel-hub-hole-fill, #111111);stroke:none}.hub-bolt-head-side{fill:var(--wheel-hub-cutout-fill, #f1f2f3);stroke:var(--wheel-hub-detail-stroke, #24272a);stroke-width:0.6}.hub-spline-line,.hub-freehub-spline,.hub-centerlock-tooth,.hub-sixbolt-side-line,.hub-freehub-thread-line,.hub-freehub-final-step-line,.hub-straightpull-slot-side{stroke:var(--wheel-hub-detail-stroke, #24272a);stroke-width:1;stroke-linecap:round;fill:none}.hub-blueprint-line{stroke:var(--wheel-hub-blueprint-stroke, #24272a);stroke-width:0.7;stroke-dasharray:3 3;fill:none;opacity:0.9}.hub-shell-flute{stroke:var(--wheel-hub-flute-stroke, #6d747a);stroke-width:0.9;stroke-linecap:round;fill:none}.hub-shell-highlight{stroke:var(--wheel-hub-highlight-stroke, #eceff1);stroke-width:1;stroke-linecap:round}.hub-centerlock-solid-ring,.hub-freehub-xd-center-ring{fill:none;stroke:var(--wheel-hub-detail-stroke, #24272a);stroke-width:1}.hub-centerlock-dashed-ring,.hub-freehub-xd-middle-ring{fill:none;stroke:var(--wheel-hub-detail-stroke, #24272a);stroke-width:1;stroke-dasharray:1 1}</style><g transform="translate(700 0) scale(-1 1)" class="wheel-face-right-mirror"><g class="spoke-theme-black wheel-back-spokes"><line x1="352.47" y1="324.921" x2="637.561" y2="262.769" class="spoke spoke-left spoke-pulling" data-rim-index="6" data-hub-index="0"/><line x1="361.879" y1="327.776" x2="159.365" y2="117.71" class="spoke spoke-left spoke-trailing" data-rim-index="28" data-hub-index="1"/><line x1="369.48" y1="334.013" x2="615.017" y2="491.655" class="spoke spoke-left spoke-pulling" data-rim-index="10" data-hub-index="2"/><line x1="374.115" y1="342.685" x2="379.454" y2="50.947" class="spoke spoke-left spoke-trailing" data-rim-index="0" data-hub-index="3"/><line x1="375.079" y1="352.47" x2="437.231" y2="637.561" class="spoke spoke-left spoke-pulling" data-rim-index="14" data-hub-index="4"/><line x1="372.224" y1="361.879" x2="582.29" y2="159.365" class="spoke spoke-left spoke-trailing" data-rim-index="4" data-hub-index="5"/><line x1="365.987" y1="369.48" x2="208.345" y2="615.017" class="spoke spoke-left spoke-pulling" data-rim-index="18" data-hub-index="6"/><line x1="357.315" y1="374.115" x2="649.053" y2="379.454" class="spoke spoke-left spoke-trailing" data-rim-index="8" data-hub-index="7"/><line x1="347.53" y1="375.079" x2="62.439" y2="437.231" class="spoke spoke-left spoke-pulling" data-rim-index="22" data-hub-index="8"/><line x1="338.121" y1="372.224" x2="540.635" y2="582.29" class="spoke spoke-left spoke-trailing" data-rim-index="12" data-hub-index="9"/><line x1="330.52" y1="365.987" x2="84.983" y2="208.345" class="spoke spoke-left spoke-pulling" data-rim-index="26" data-hub-index="10"/><line x1="325.885" y1="357.315" x2="320.546" y2="649.053" class="spoke spoke-left spoke-trailing" data-rim-index="16" data-hub-index="11"/><line x1="324.921" y1="347.53" x2="262.769" y2="62.439" class="spoke spoke-left spoke-pulling" data-rim-index="30" data-hub-index="12"/><line x1="327.776" y1="338.121" x2="117.71" y2="540.635" class="spoke spoke-left spoke-trailing" data-rim-index="20" data-hub-index="13"/><line x1="334.013" y1="330.52" x2="491.655" y2="84.983" class="spoke spoke-left spoke-pulling" data-rim-index="2" data-hub-index="14"/><line x1="342.685" y1="325.885" x2="50.947" y2="320.546" class="spoke spoke-left spoke-trailing" data-rim-index="24" data-hub-index="15"/></g><g class="nipple-theme-black wheel-back-nipples"><line x1="637.561" y1="262.769" x2="627.79" y2="264.899" class="spoke-nipple"/><line x1="159.365" y1="117.71" x2="166.305" y2="124.91" class="spoke-nipple"/><line x1="615.017" y1="491.655" x2="606.602" y2="486.252" class="spoke-nipple"/><line x1="379.454" y1="50.947" x2="379.271" y2="60.945" class="spoke-nipple"/><line x1="437.231" y1="637.561" x2="435.101" y2="627.79" class="spoke-nipple"/><line x1="582.29" y1="159.365" x2="575.09" y2="166.305" class="spoke-nipple"/><line x1="208.345" y1="615.017" x2="213.748" y2="606.602" class="spoke-nipple"/><line x1="649.053" y1="379.454" x2="639.055" y2="379.271" class="spoke-nipple"/><line x1="62.439" y1="437.231" x2="72.21" y2="435.101" class="spoke-nipple"/><line x1="540.635" y1="582.29" x2="533.695" y2="575.09" class="spoke-nipple"/><line x1="84.983" y1="208.345" x2="93.398" y2="213.748" class="spoke-nipple"/><line x1="320.546" y1="649.053" x2="320.729" y2="639.055" class="spoke-nipple"/><line x1="262.769" y1="62.439" x2="264.899" y2="72.21" class="spoke-nipple"/><line x1="117.71" y1="540.635" x2="124.91" y2="533.695" class="spoke-nipple"/><line x1="491.655" y1="84.983" x2="486.252" y2="93.398" class="spoke-nipple"/><line x1="50.947" y1="320.546" x2="60.945" y2="320.729" class="spoke-nipple"/></g><g class="wheel-hub-face-group"><circle cx="350" cy="350" r="17" class="hub-centerlock-solid-ring" fill="none" stroke="var(--wheel-hub-detail-stroke, #24272a)" stroke-width="1"/><circle cx="350" cy="350" r="17.5" class="hub-centerlock-dashed-ring" fill="none" stroke="var(--wheel-hub-detail-stroke, #24272a)" stroke-width="1" stroke-dasharray="1 1"/><path d="M 350 320.8 A 29.2 29.2 0 0 1 350 379.2 A 29.2 29.2 0 0 1 350 320.8 Z M 350 344 A 6 6 0 0 0 350 356 A 6 6 0 0 0 350 344 Z " class="hub-flange-left"/><path d="M 350 320.8 A 29.2 29.2 0 0 1 350 379.2 A 29.2 29.2 0 0 1 350 320.8 Z M 350 344 A 6 6 0 0 0 350 356 A 6 6 0 0 0 350 344 Z " class="hub-flange-right"/><path d="M 348.172 334.205 L 348.04 333.063 L 348.428 332.621 A 17.45 17.45 0 0 1 351.572 332.621 L 351.96 333.063 L 351.828 334.205 A 15.9 15.9 0 0 1 354.861 334.861 L 355.212 333.766 L 355.748 333.524 A 17.45 17.45 0 0 1 361.302 336.705 L 361.364 337.29 L 360.598 338.147 A 15.9 15.9 0 0 1 363.454 341.527 L 364.428 340.914 L 364.994 341.073 A 17.45 17.45 0 0 1 367.204 347.08 L 366.876 347.568 L 365.737 347.732 A 15.9 15.9 0 0 1 365.753 352.158 L 366.892 352.314 L 367.224 352.8 A 17.45 17.45 0 0 1 365.056 358.822 L 364.491 358.985 L 363.513 358.379 A 15.9 15.9 0 0 1 360.68 361.779 L 361.453 362.631 L 361.395 363.216 A 17.45 17.45 0 0 1 355.863 366.436 L 355.325 366.197 L 354.966 365.105 A 15.9 15.9 0 0 1 350.61 365.888 L 350.655 367.037 L 350.234 367.448 A 17.45 17.45 0 0 1 343.927 366.359 L 343.668 365.831 L 344.095 364.763 A 15.9 15.9 0 0 1 340.255 362.563 L 339.55 363.472 L 338.963 363.517 A 17.45 17.45 0 0 1 334.832 358.628 L 334.974 358.057 L 335.987 357.514 A 15.9 15.9 0 0 1 334.459 353.36 L 333.335 353.603 L 332.857 353.26 A 17.45 17.45 0 0 1 332.835 346.86 L 333.31 346.513 L 334.436 346.749 A 15.9 15.9 0 0 1 335.935 342.584 L 334.918 342.048 L 334.772 341.478 A 17.45 17.45 0 0 1 338.869 336.561 L 339.456 336.601 L 340.167 337.505 A 15.9 15.9 0 0 1 345.034 334.895 Z M 350 340 A 10 10 0 0 0 350 360 A 10 10 0 0 0 350 340 Z " class="hub-cylinder-freehub hub-freehub-hg-face"/><circle cx="350" cy="350" r="9" fill="none" stroke="var(--wheel-hub-detail-stroke, #24272a)" stroke-width="6"/></g><g class="spoke-theme-black wheel-front-spokes"><line x1="357.315" y1="325.885" x2="649.053" y2="320.546" class="spoke spoke-right spoke-pulling" data-rim-index="7" data-hub-index="0"/><line x1="365.987" y1="330.52" x2="208.345" y2="84.983" class="spoke spoke-right spoke-trailing" data-rim-index="29" data-hub-index="1"/><line x1="372.224" y1="338.121" x2="582.29" y2="540.635" class="spoke spoke-right spoke-pulling" data-rim-index="11" data-hub-index="2"/><line x1="375.079" y1="347.53" x2="437.231" y2="62.439" class="spoke spoke-right spoke-trailing" data-rim-index="1" data-hub-index="3"/><line x1="374.115" y1="357.315" x2="379.454" y2="649.053" class="spoke spoke-right spoke-pulling" data-rim-index="15" data-hub-index="4"/><line x1="369.48" y1="365.987" x2="615.017" y2="208.345" class="spoke spoke-right spoke-trailing" data-rim-index="5" data-hub-index="5"/><line x1="361.879" y1="372.224" x2="159.365" y2="582.29" class="spoke spoke-right spoke-pulling" data-rim-index="19" data-hub-index="6"/><line x1="352.47" y1="375.079" x2="637.561" y2="437.231" class="spoke spoke-right spoke-trailing" data-rim-index="9" data-hub-index="7"/><line x1="342.685" y1="374.115" x2="50.947" y2="379.454" class="spoke spoke-right spoke-pulling" data-rim-index="23" data-hub-index="8"/><line x1="334.013" y1="369.48" x2="491.655" y2="615.017" class="spoke spoke-right spoke-trailing" data-rim-index="13" data-hub-index="9"/><line x1="327.776" y1="361.879" x2="117.71" y2="159.365" class="spoke spoke-right spoke-pulling" data-rim-index="27" data-hub-index="10"/><line x1="324.921" y1="352.47" x2="262.769" y2="637.561" class="spoke spoke-right spoke-trailing" data-rim-index="17" data-hub-index="11"/><line x1="325.885" y1="342.685" x2="320.546" y2="50.947" class="spoke spoke-right spoke-pulling" data-rim-index="31" data-hub-index="12"/><line x1="330.52" y1="334.013" x2="84.983" y2="491.655" class="spoke spoke-right spoke-trailing" data-rim-index="21" data-hub-index="13"/><line x1="338.121" y1="327.776" x2="540.635" y2="117.71" class="spoke spoke-right spoke-pulling" data-rim-index="3" data-hub-index="14"/><line x1="347.53" y1="324.921" x2="62.439" y2="262.769" class="spoke spoke-right spoke-trailing" data-rim-index="25" data-hub-index="15"/></g><g class="nipple-theme-black wheel-front-nipples"><line x1="649.053" y1="320.546" x2="639.055" y2="320.729" class="spoke-nipple"/><line x1="208.345" y1="84.983" x2="213.748" y2="93.398" class="spoke-nipple"/><line x1="582.29" y1="540.635" x2="575.09" y2="533.695" class="spoke-nipple"/><line x1="437.231" y1="62.439" x2="435.101" y2="72.21" class="spoke-nipple"/><line x1="379.454" y1="649.053" x2="379.271" y2="639.055" class="spoke-nipple"/><line x1="615.017" y1="208.345" x2="606.602" y2="213.748" class="spoke-nipple"/><line x1="159.365" y1="582.29" x2="166.305" y2="575.09" class="spoke-nipple"/><line x1="637.561" y1="437.231" x2="627.79" y2="435.101" class="spoke-nipple"/><line x1="50.947" y1="379.454" x2="60.945" y2="379.271" class="spoke-nipple"/><line x1="491.655" y1="615.017" x2="486.252" y2="606.602" class="spoke-nipple"/><line x1="117.71" y1="159.365" x2="124.91" y2="166.305" class="spoke-nipple"/><line x1="262.769" y1="637.561" x2="264.899" y2="627.79" class="spoke-nipple"/><line x1="320.546" y1="50.947" x2="320.729" y2="60.945" class="spoke-nipple"/><line x1="84.983" y1="491.655" x2="93.398" y2="486.252" class="spoke-nipple"/><line x1="540.635" y1="117.71" x2="533.695" y2="124.91" class="spoke-nipple"/><line x1="62.439" y1="262.769" x2="72.21" y2="264.899" class="spoke-nipple"/></g><g id="rimGroup"><circle cx="350" cy="350" r="308.75" fill="transparent" stroke="var(--wheel-rim-face-fill, #222529)" stroke-width="16.5"/><circle cx="350" cy="350" r="317" class="rim-outline"/><circle cx="350" cy="350" r="300.5" class="rim-outline"/><circle cx="350" cy="350" r="301.5" class="rim-highlight"/></g><g class="wheel-back-nipple-dots"></g><g class="wheel-front-nipple-dots"></g><g class="rim-holes-group"><circle cx="379.454" cy="50.947" r="2.2" class="rim-hole"/><circle cx="437.231" cy="62.439" r="2.2" class="rim-hole"/><circle cx="491.655" cy="84.983" r="2.2" class="rim-hole"/><circle cx="540.635" cy="117.71" r="2.2" class="rim-hole"/><circle cx="582.29" cy="159.365" r="2.2" class="rim-hole"/><circle cx="615.017" cy="208.345" r="2.2" class="rim-hole"/><circle cx="637.561" cy="262.769" r="2.2" class="rim-hole"/><circle cx="649.053" cy="320.546" r="2.2" class="rim-hole"/><circle cx="649.053" cy="379.454" r="2.2" class="rim-hole"/><circle cx="637.561" cy="437.231" r="2.2" class="rim-hole"/><circle cx="615.017" cy="491.655" r="2.2" class="rim-hole"/><circle cx="582.29" cy="540.635" r="2.2" class="rim-hole"/><circle cx="540.635" cy="582.29" r="2.2" class="rim-hole"/><circle cx="491.655" cy="615.017" r="2.2" class="rim-hole"/><circle cx="437.231" cy="637.561" r="2.2" class="rim-hole"/><circle cx="379.454" cy="649.053" r="2.2" class="rim-hole"/><circle cx="320.546" cy="649.053" r="2.2" class="rim-hole"/><circle cx="262.769" cy="637.561" r="2.2" class="rim-hole"/><circle cx="208.345" cy="615.017" r="2.2" class="rim-hole"/><circle cx="159.365" cy="582.29" r="2.2" class="rim-hole"/><circle cx="117.71" cy="540.635" r="2.2" class="rim-hole"/><circle cx="84.983" cy="491.655" r="2.2" class="rim-hole"/><circle cx="62.439" cy="437.231" r="2.2" class="rim-hole"/><circle cx="50.947" cy="379.454" r="2.2" class="rim-hole"/><circle cx="50.947" cy="320.546" r="2.2" class="rim-hole"/><circle cx="62.439" cy="262.769" r="2.2" class="rim-hole"/><circle cx="84.983" cy="208.345" r="2.2" class="rim-hole"/><circle cx="117.71" cy="159.365" r="2.2" class="rim-hole"/><circle cx="159.365" cy="117.71" r="2.2" class="rim-hole"/><circle cx="208.345" cy="84.983" r="2.2" class="rim-hole"/><circle cx="262.769" cy="62.439" r="2.2" class="rim-hole"/><circle cx="320.546" cy="50.947" r="2.2" class="rim-hole"/></g><g class="wheel-valve-group" transform="translate(350 49.5) rotate(0)"><rect x="-3" y="0" width="6" height="48" class="wheel-valve-part wheel-valve-stem" rx="1"/><rect x="-5" y="0" width="10" height="3" class="wheel-valve-part wheel-valve-base" rx="0.5"/><rect x="-2" y="48" width="4" height="6" class="wheel-valve-part wheel-valve-cap" rx="0.5"/></g></g></svg>